<svg width="1024" height="1024" viewBox="0 0 1024 1024" fill="none" xmlns="http://www.w3.org/2000/svg" role="img" aria-labelledby="title desc">
  <title id="title">LIGHTSWORD app icon</title>
  <desc id="desc">A stylized cross shaped like a sword on a warm sepia background.</desc>
  <defs>
    <linearGradient id="bgGradient" x1="176" y1="112" x2="848" y2="912" gradientUnits="userSpaceOnUse">
      <stop stop-color="#A55A22"/>
      <stop offset="0.58" stop-color="#8B4513"/>
      <stop offset="1" stop-color="#5E2C08"/>
    </linearGradient>
    <radialGradient id="glowGradient" cx="0" cy="0" r="1" gradientUnits="userSpaceOnUse" gradientTransform="translate(512 372) rotate(90) scale(388 388)">
      <stop stop-color="#FFF6E6" stop-opacity="0.26"/>
      <stop offset="1" stop-color="#FFF6E6" stop-opacity="0"/>
    </radialGradient>
    <linearGradient id="bladeGradient" x1="512" y1="248" x2="512" y2="794" gradientUnits="userSpaceOnUse">
      <stop stop-color="#FFFDF8"/>
      <stop offset="1" stop-color="#F5E3C4"/>
    </linearGradient>
    <linearGradient id="accentGradient" x1="512" y1="248" x2="512" y2="786" gradientUnits="userSpaceOnUse">
      <stop stop-color="#F6D38A"/>
      <stop offset="1" stop-color="#D79A47"/>
    </linearGradient>
    <filter id="shadow" x="193" y="185" width="638" height="670" filterUnits="userSpaceOnUse" color-interpolation-filters="sRGB">
      <feFlood flood-opacity="0" result="BackgroundImageFix"/>
      <feColorMatrix in="SourceAlpha" type="matrix" values="0 0 0 0 0 0 0 0 0 0 0 0 0 0 0 0 0 0 127 0" result="hardAlpha"/>
      <feOffset dy="28"/>
      <feGaussianBlur stdDeviation="24"/>
      <feComposite in2="hardAlpha" operator="out"/>
      <feColorMatrix type="matrix" values="0 0 0 0 0.258824 0 0 0 0 0.121569 0 0 0 0 0.0313725 0 0 0 0.32 0"/>
      <feBlend mode="normal" in2="BackgroundImageFix" result="effect1_dropShadow_1_1"/>
      <feBlend mode="normal" in="SourceGraphic" in2="effect1_dropShadow_1_1" result="shape"/>
    </filter>
  </defs>

  <rect x="64" y="64" width="896" height="896" rx="224" fill="url(#bgGradient)"/>
  <rect x="64" y="64" width="896" height="896" rx="224" fill="url(#glowGradient)"/>
  <rect x="92" y="92" width="840" height="840" rx="196" stroke="#FFF6E6" stroke-opacity="0.14" stroke-width="8"/>

  <g filter="url(#shadow)">
    <path d="M450 248C450 230.327 464.327 216 482 216H542C559.673 216 574 230.327 574 248V338H674C691.673 338 706 352.327 706 370V426C706 443.673 691.673 458 674 458H574V594L637 657C649.497 669.497 649.497 689.759 637 702.255L534.627 804.627C522.131 817.124 501.869 817.124 489.373 804.627L387 702.255C374.503 689.759 374.503 669.497 387 657L450 594V458H350C332.327 458 318 443.673 318 426V370C318 352.327 332.327 338 350 338H450V248Z" fill="url(#bladeGradient)"/>
    <path d="M492 284C492 275.163 499.163 268 508 268H516C524.837 268 532 275.163 532 284V615L573 656C579.249 662.249 579.249 672.381 573 678.627L523.314 728.314C517.065 734.563 506.934 734.563 500.686 728.314L451 678.627C444.751 672.381 444.751 662.249 451 656L492 615V284Z" fill="url(#accentGradient)"/>
    <rect x="374" y="366" width="276" height="64" rx="32" fill="#FFF6E6" fill-opacity="0.94"/>
    <path d="M512 332L544 364H480L512 332Z" fill="#FFF6E6" fill-opacity="0.94"/>
    <path d="M512 784L466 738H558L512 784Z" fill="#FFF6E6"/>
    <circle cx="512" cy="398" r="18" fill="#8B4513" fill-opacity="0.2"/>
  </g>
</svg>